<svg width="126" height="70" viewBox="0 0 126 70" fill="none" xmlns="http://www.w3.org/2000/svg">
<rect width="126" height="70" fill="#2F5744"/>
<g opacity="0.9">
<path d="M6 16.4317C6.04065 6.90358 13.3581 2.1196 20.5942 2.1196C26.3261 2.15947 32.302 5.06972 33.6842 12.0065H26.5294C25.3505 9.61451 23.4805 8.65771 20.5942 8.65771C16.0005 8.65771 13.5207 12.166 13.5207 16.4317C13.5207 21.0562 16.285 24.0861 20.5942 24.0861C23.5211 24.0861 25.3911 23.3286 26.692 20.6575H20.6348V14.4782H34.0907C34.2533 17.2689 34.2533 19.9399 33.2777 22.6509C31.245 28.4714 25.8383 30.7039 20.5942 30.7039C13.3581 30.7039 6.04065 25.9598 6 16.4317ZM23.3992 17.229V17.6675H30.4726C30.3913 23.4083 26.2448 27.1956 20.5942 27.1956C14.415 27.1956 9.98392 22.6509 9.98392 16.4317C9.98392 10.2922 14.415 5.58799 20.5942 5.62785C23.9276 5.62785 27.1798 7.06305 28.9279 9.89357H29.4157C27.5863 6.78399 23.9683 5.26906 20.5942 5.26906C15.0654 5.26906 9.53674 9.17598 9.53674 16.4317C9.53674 23.6874 15.0654 27.6342 20.5942 27.5943C26.3668 27.5943 30.9198 23.5279 30.9198 17.6675V17.229H23.3992Z" fill="#ACD2C0"/>
<path d="M41.6943 16.4716C41.6943 31.4614 63.7684 31.4614 63.7684 16.4716C63.7684 1.48174 41.6943 1.5216 41.6943 16.4716ZM67.3052 16.4716C67.3052 35.8068 38.1169 35.8068 38.1169 16.4716C38.1169 -2.82385 67.3052 -2.82385 67.3052 16.4716ZM45.5969 16.4716C45.5969 6.42519 59.8658 6.42519 59.8658 16.4716C59.8658 26.5977 45.5969 26.5977 45.5969 16.4716ZM63.3619 16.4716C63.3619 2.19933 42.1008 1.92027 42.1008 16.4716C42.1008 31.0627 63.3619 30.7836 63.3619 16.4716Z" fill="#ACD2C0"/>
<path d="M80.0525 2.4784C80.0525 16.9101 80.0525 12.0862 80.0525 23.9665H90.3782C90.3782 26.3585 90.3782 27.993 90.3782 30.385C84.5242 30.385 78.5077 30.385 72.7351 30.385V2.4784C75.1742 2.4784 77.5727 2.4784 80.0525 2.4784ZM87.6138 27.3551V26.9963H76.6377C76.6377 5.42852 76.6377 23.5678 76.6377 5.18932H76.1905V27.3551H87.6138Z" fill="#ACD2C0"/>
<path d="M106.097 2.4784C124.634 2.55813 124.634 30.3052 106.097 30.385H95.3647V2.4784H106.097ZM98.9015 5.46839V27.395H106.016C120.163 27.395 120.163 5.46839 106.016 5.46839H98.9015ZM106.016 26.9564C119.675 26.9166 119.675 5.94679 106.016 5.86706H99.2674V26.9564H106.016ZM102.641 23.8867V8.97664H106.097C115.162 8.97664 115.162 23.8867 106.097 23.8867H102.641Z" fill="#ACD2C0"/>
<path d="M26.2342 43.4422H17.9411V53.8474H26.2342C29.1611 53.8474 31.3564 51.4953 31.3564 48.6647C31.3564 45.8741 29.0798 43.4422 26.2342 43.4422ZM35.137 48.6647C35.137 50.3391 34.2833 52.3723 32.9011 53.4886C35.2183 54.6447 36.3159 56.7178 36.3159 59.1895C36.2753 64.0532 33.267 68 27.4537 68H14.1198V40.0934H26.2748C31.1938 40.0934 35.137 43.8409 35.137 48.6647ZM26.2342 43.0834H17.5346V65.0499H27.3724C30.462 65.0499 32.9418 62.1795 32.9418 59.1895C32.9418 56.5583 30.8685 54.0866 28.1448 53.967V53.8075C30.2181 53.3291 31.7629 50.7378 31.7629 48.6647C31.7629 45.6349 29.2831 43.0834 26.2342 43.0834ZM27.3724 54.2062H17.9411V64.6512H27.3724C30.1774 64.6512 32.5353 62.02 32.5353 59.1895C32.5353 56.359 30.1774 54.2062 27.3724 54.2062ZM26.9253 57.0766C29.8522 57.0766 29.8929 61.6612 26.9659 61.6612H21.1526V57.0766H26.9253ZM21.1526 46.4721H25.7057C28.6327 46.4721 28.6327 50.8973 25.7464 50.8973H21.1526V46.4721Z" fill="#ACD2C0"/>
<path d="M45.4036 43.0436C45.4036 50.3391 45.4036 57.6746 45.4036 65.0499H57.3554V64.6512H45.8508C45.8508 61.0234 45.8508 57.3955 45.8508 53.7677H56.1765V53.369H45.8508V43.4422H56.9895V43.0436H45.4036ZM59.7539 40.0934C59.7539 42.1665 59.7539 44.3193 59.7539 46.4721C55.526 46.4721 53.4121 46.4721 49.2249 46.4721V50.4189H58.9002C58.9002 52.5318 58.9002 54.6447 58.9002 56.7576H49.2249C49.2249 58.3922 49.2249 59.9868 49.2249 61.6612C53.4121 61.6612 55.8512 61.6612 60.1197 61.6612C60.1197 63.7343 60.1197 65.8871 60.1197 68C53.4528 68 48.5745 68 41.9888 68C41.9888 58.6712 41.9888 49.3425 41.9888 40.0934C48.5745 40.0934 53.0869 40.0934 59.7539 40.0934Z" fill="#ACD2C0"/>
<path d="M69.7791 43.0436C69.7791 50.3391 69.7791 57.6746 69.7791 65.0499H81.7308V64.6512H70.2263C70.2263 61.0234 70.2263 57.3955 70.2263 53.7677H80.5519V53.369H70.2263V43.4422H81.365V43.0436H69.7791ZM84.1293 40.0934C84.1293 42.1665 84.1293 44.3193 84.1293 46.4721C79.9015 46.4721 77.7876 46.4721 73.6004 46.4721V50.4189H83.2756C83.2756 52.5318 83.2756 54.6447 83.2756 56.7576H73.6004C73.6004 58.3922 73.6004 59.9868 73.6004 61.6612C77.7876 61.6612 80.2267 61.6612 84.4952 61.6612C84.4952 63.7343 84.4952 65.8871 84.4952 68C77.8282 68 72.95 68 66.3643 68C66.3643 58.6712 66.3643 49.3425 66.3643 40.0934C72.95 40.0934 77.4624 40.0934 84.1293 40.0934Z" fill="#ACD2C0"/>
<path d="M103.22 43.4821C111.676 43.4821 111.798 56.359 103.22 56.359H94.4798V43.4821H103.22ZM94.4798 56.7975H103.22C103.505 56.7975 103.789 56.7576 104.033 56.7576L109.318 65.3688H109.806L105.7 58.7908L104.48 56.6779C112.163 55.442 111.92 43.1233 103.22 43.1233H94.0732V65.3289H94.4798V56.7975ZM109.196 58.1131L114.765 66.9635V68H106.635L101.757 59.7875H97.9759V68C95.5367 68 93.0569 68 90.6991 68C90.6991 58.7111 90.6991 49.4222 90.6991 40.0934C94.805 40.0934 99.0328 40.0934 103.179 40.0934C114.359 40.1333 116.391 53.3291 109.196 58.1131ZM103.179 53.369C107.123 53.369 107.326 46.5119 103.179 46.4721C101.472 46.4322 99.6832 46.4721 97.9759 46.4721C97.9759 48.7445 97.9759 51.1365 97.9759 53.369H103.179Z" fill="#ACD2C0"/>
</g>
</svg>
