<svg width="120" height="80" viewBox="0 0 120 80" fill="none" xmlns="http://www.w3.org/2000/svg">
<rect width="120" height="80" fill="#2F5744"/>
<g opacity="0.9">
<path d="M3 21.4317C3.04065 11.9036 10.3581 7.1196 17.5942 7.1196C23.3261 7.15947 29.302 10.0697 30.6842 17.0065H23.5294C22.3505 14.6145 20.4805 13.6577 17.5942 13.6577C13.0005 13.6577 10.5207 17.166 10.5207 21.4317C10.5207 26.0562 13.285 29.0861 17.5942 29.0861C20.5211 29.0861 22.3911 28.3286 23.692 25.6575H17.6348V19.4782H31.0907C31.2533 22.2689 31.2533 24.9399 30.2777 27.6509C28.245 33.4714 22.8383 35.7039 17.5942 35.7039C10.3581 35.7039 3.04065 30.9598 3 21.4317ZM20.3992 22.229V22.6675H27.4726C27.3913 28.4083 23.2448 32.1956 17.5942 32.1956C11.415 32.1956 6.98392 27.6509 6.98392 21.4317C6.98392 15.2922 11.415 10.588 17.5942 10.6279C20.9276 10.6279 24.1798 12.063 25.9279 14.8936H26.4157C24.5863 11.784 20.9683 10.2691 17.5942 10.2691C12.0654 10.2691 6.53674 14.176 6.53674 21.4317C6.53674 28.6874 12.0654 32.6342 17.5942 32.5943C23.3668 32.5943 27.9198 28.5279 27.9198 22.6675V22.229H20.3992Z" fill="#ACD2C0"/>
<path d="M38.6943 21.4716C38.6943 36.4614 60.7684 36.4614 60.7684 21.4716C60.7684 6.48174 38.6943 6.5216 38.6943 21.4716ZM64.3052 21.4716C64.3052 40.8068 35.1169 40.8068 35.1169 21.4716C35.1169 2.17615 64.3052 2.17615 64.3052 21.4716ZM42.5969 21.4716C42.5969 11.4252 56.8658 11.4252 56.8658 21.4716C56.8658 31.5977 42.5969 31.5977 42.5969 21.4716ZM60.3619 21.4716C60.3619 7.19933 39.1008 6.92027 39.1008 21.4716C39.1008 36.0627 60.3619 35.7836 60.3619 21.4716Z" fill="#ACD2C0"/>
<path d="M77.0525 7.4784C77.0525 21.9101 77.0525 17.0862 77.0525 28.9665H87.3782C87.3782 31.3585 87.3782 32.993 87.3782 35.385C81.5242 35.385 75.5077 35.385 69.7351 35.385V7.4784C72.1742 7.4784 74.5727 7.4784 77.0525 7.4784ZM84.6138 32.3551V31.9963H73.6377C73.6377 10.4285 73.6377 28.5678 73.6377 10.1893H73.1905V32.3551H84.6138Z" fill="#ACD2C0"/>
<path d="M103.097 7.4784C121.634 7.55813 121.634 35.3052 103.097 35.385H92.3647V7.4784H103.097ZM95.9015 10.4684V32.395H103.016C117.163 32.395 117.163 10.4684 103.016 10.4684H95.9015ZM103.016 31.9564C116.675 31.9166 116.675 10.9468 103.016 10.8671H96.2674V31.9564H103.016ZM99.6415 28.8867V13.9766H103.097C112.162 13.9766 112.162 28.8867 103.097 28.8867H99.6415Z" fill="#ACD2C0"/>
<path d="M23.2342 48.4422H14.9411V58.8474H23.2342C26.1611 58.8474 28.3564 56.4953 28.3564 53.6647C28.3564 50.8741 26.0798 48.4422 23.2342 48.4422ZM32.137 53.6647C32.137 55.3391 31.2833 57.3723 29.9011 58.4886C32.2183 59.6447 33.3159 61.7178 33.3159 64.1895C33.2753 69.0532 30.267 73 24.4537 73H11.1198V45.0934H23.2748C28.1938 45.0934 32.137 48.8409 32.137 53.6647ZM23.2342 48.0834H14.5346V70.0499H24.3724C27.462 70.0499 29.9418 67.1795 29.9418 64.1895C29.9418 61.5583 27.8685 59.0866 25.1448 58.967V58.8075C27.2181 58.3291 28.7629 55.7378 28.7629 53.6647C28.7629 50.6349 26.2831 48.0834 23.2342 48.0834ZM24.3724 59.2062H14.9411V69.6512H24.3724C27.1774 69.6512 29.5353 67.02 29.5353 64.1895C29.5353 61.359 27.1774 59.2062 24.3724 59.2062ZM23.9253 62.0766C26.8522 62.0766 26.8929 66.6612 23.9659 66.6612H18.1526V62.0766H23.9253ZM18.1526 51.4721H22.7057C25.6327 51.4721 25.6327 55.8973 22.7464 55.8973H18.1526V51.4721Z" fill="#ACD2C0"/>
<path d="M42.4036 48.0436C42.4036 55.3391 42.4036 62.6746 42.4036 70.0499H54.3554V69.6512H42.8508C42.8508 66.0234 42.8508 62.3955 42.8508 58.7677H53.1765V58.369H42.8508V48.4422H53.9895V48.0436H42.4036ZM56.7539 45.0934C56.7539 47.1665 56.7539 49.3193 56.7539 51.4721C52.526 51.4721 50.4121 51.4721 46.2249 51.4721V55.4189H55.9002C55.9002 57.5318 55.9002 59.6447 55.9002 61.7576H46.2249C46.2249 63.3922 46.2249 64.9868 46.2249 66.6612C50.4121 66.6612 52.8512 66.6612 57.1197 66.6612C57.1197 68.7343 57.1197 70.8871 57.1197 73C50.4528 73 45.5745 73 38.9888 73C38.9888 63.6712 38.9888 54.3425 38.9888 45.0934C45.5745 45.0934 50.0869 45.0934 56.7539 45.0934Z" fill="#ACD2C0"/>
<path d="M66.7791 48.0436C66.7791 55.3391 66.7791 62.6746 66.7791 70.0499H78.7308V69.6512H67.2263C67.2263 66.0234 67.2263 62.3955 67.2263 58.7677H77.5519V58.369H67.2263V48.4422H78.365V48.0436H66.7791ZM81.1293 45.0934C81.1293 47.1665 81.1293 49.3193 81.1293 51.4721C76.9015 51.4721 74.7876 51.4721 70.6004 51.4721V55.4189H80.2756C80.2756 57.5318 80.2756 59.6447 80.2756 61.7576H70.6004C70.6004 63.3922 70.6004 64.9868 70.6004 66.6612C74.7876 66.6612 77.2267 66.6612 81.4952 66.6612C81.4952 68.7343 81.4952 70.8871 81.4952 73C74.8282 73 69.95 73 63.3643 73C63.3643 63.6712 63.3643 54.3425 63.3643 45.0934C69.95 45.0934 74.4624 45.0934 81.1293 45.0934Z" fill="#ACD2C0"/>
<path d="M100.22 48.4821C108.676 48.4821 108.798 61.359 100.22 61.359H91.4798V48.4821H100.22ZM91.4798 61.7975H100.22C100.505 61.7975 100.789 61.7576 101.033 61.7576L106.318 70.3688H106.806L102.7 63.7908L101.48 61.6779C109.163 60.442 108.92 48.1233 100.22 48.1233H91.0732V70.3289H91.4798V61.7975ZM106.196 63.1131L111.765 71.9635V73H103.635L98.7565 64.7875H94.9759V73C92.5367 73 90.0569 73 87.6991 73C87.6991 63.7111 87.6991 54.4222 87.6991 45.0934C91.805 45.0934 96.0328 45.0934 100.179 45.0934C111.359 45.1333 113.391 58.3291 106.196 63.1131ZM100.179 58.369C104.123 58.369 104.326 51.5119 100.179 51.4721C98.4719 51.4322 96.6832 51.4721 94.9759 51.4721C94.9759 53.7445 94.9759 56.1365 94.9759 58.369H100.179Z" fill="#ACD2C0"/>
</g>
</svg>
