<svg width="27" height="28" viewBox="0 0 27 28" fill="none" xmlns="http://www.w3.org/2000/svg">
<path d="M13.5 27.5C11.642 27.5 9.892 27.145 8.25 26.435C6.608 25.725 5.178 24.76 3.96 23.54C2.74 22.323 1.775 20.893 1.065 19.25C0.355 17.608 0 15.858 0 14C0 12.137 0.355 10.3855 1.065 8.7455C1.776 7.1055 2.741 5.6765 3.96 4.4585C5.177 3.2405 6.607 2.2765 8.25 1.5665C9.892 0.8555 11.642 0.5 13.5 0.5C15.363 0.5 17.1145 0.855 18.7545 1.565C20.3945 2.276 21.8235 3.241 23.0415 4.46C24.2595 5.678 25.2235 7.1065 25.9335 8.7455C26.6445 10.3855 27 12.137 27 14C27 15.858 26.645 17.608 25.935 19.25C25.225 20.892 24.26 22.322 23.04 23.54C21.822 24.759 20.3935 25.724 18.7545 26.435C17.1145 27.145 15.363 27.5 13.5 27.5ZM13.5 26.012C14.38 24.881 15.106 23.7705 15.678 22.6805C16.249 21.5905 16.7135 20.3705 17.0715 19.0205H9.9285C10.3245 20.4465 10.7985 21.7045 11.3505 22.7945C11.9025 23.8845 12.619 24.957 13.5 26.012ZM11.5905 25.787C10.8905 24.962 10.2515 23.942 9.6735 22.727C9.0955 21.513 8.6655 20.277 8.3835 19.019H2.6295C3.4895 20.885 4.708 22.415 6.285 23.609C7.863 24.803 9.631 25.529 11.589 25.787H11.5905ZM15.4095 25.787C17.3675 25.529 19.1355 24.803 20.7135 23.609C22.2915 22.415 23.51 20.885 24.369 19.019H18.618C18.238 20.296 17.7595 21.542 17.1825 22.757C16.6045 23.971 16.0135 24.981 15.4095 25.787ZM2.019 17.519H8.0715C7.9575 16.904 7.8775 16.3045 7.8315 15.7205C7.7835 15.1365 7.7595 14.563 7.7595 14C7.7595 13.437 7.783 12.8635 7.83 12.2795C7.877 11.6955 7.957 11.0955 8.07 10.4795H2.0205C1.8575 10.9995 1.73 11.566 1.638 12.179C1.546 12.792 1.5 13.399 1.5 14C1.5 14.602 1.5455 15.209 1.6365 15.821C1.7285 16.434 1.856 17 2.019 17.519ZM9.5715 17.519H17.4285C17.5425 16.904 17.6225 16.314 17.6685 15.749C17.7165 15.185 17.7405 14.602 17.7405 14C17.7405 13.398 17.717 12.815 17.67 12.251C17.623 11.686 17.543 11.096 17.43 10.481H9.57C9.457 11.096 9.377 11.686 9.33 12.251C9.283 12.815 9.2595 13.398 9.2595 14C9.2595 14.602 9.283 15.185 9.33 15.749C9.377 16.314 9.4585 16.904 9.5715 17.519ZM18.9285 17.519H24.981C25.144 16.999 25.2715 16.433 25.3635 15.821C25.4555 15.209 25.501 14.602 25.5 14C25.5 13.398 25.4545 12.791 25.3635 12.179C25.2715 11.566 25.144 11 24.981 10.481H18.9285C19.0425 11.096 19.1225 11.6955 19.1685 12.2795C19.2165 12.8635 19.2405 13.437 19.2405 14C19.2405 14.563 19.217 15.1365 19.17 15.7205C19.123 16.3045 19.043 16.9045 18.93 17.5205L18.9285 17.519ZM18.618 8.981H24.369C23.49 7.077 22.286 5.547 20.757 4.391C19.227 3.235 17.4445 2.5 15.4095 2.186C16.1095 3.106 16.739 4.159 17.298 5.345C17.856 6.53 18.296 7.742 18.618 8.981ZM9.9285 8.981H17.0715C16.6755 7.573 16.187 6.3 15.606 5.162C15.026 4.023 14.324 2.965 13.5 1.988C12.677 2.965 11.975 4.023 11.394 5.162C10.814 6.3 10.3255 7.573 9.9285 8.981ZM2.631 8.981H8.382C8.704 7.742 9.144 6.53 9.702 5.345C10.261 4.159 10.8905 3.1055 11.5905 2.1845C9.5365 2.4995 7.7495 3.2395 6.2295 4.4045C4.7095 5.5705 3.5095 7.0955 2.6295 8.9795L2.631 8.981Z" fill="white"/>
</svg>
